<svg xmlns="http://www.w3.org/2000/svg" version="1.1" viewBox="-5.0 -10.0 110.0 135.0">
 <path d="m49.938 3.9023c25.41 0 46.035 20.629 46.035 46.035 0 25.41-20.629 46.035-46.035 46.035s-46.035-20.629-46.035-46.035 20.629-46.035 46.035-46.035zm30.895 73.516c6.5039-7.3086 10.461-16.934 10.461-27.477 0-22.824-18.531-41.355-41.355-41.355s-41.355 18.531-41.355 41.355c0 10.543 3.9531 20.172 10.461 27.477 3.8086-8.9648 11.406-15.938 20.777-18.898-4.7266-3.2344-7.8281-8.668-7.8281-14.82 0-9.9062 8.043-17.945 17.945-17.945 9.9062 0 17.945 8.043 17.945 17.945 0 6.1523-3.1016 11.586-7.8281 14.82 9.3711 2.9648 16.969 9.9375 20.777 18.898zm-58.164 3.6016c7.2812 6.3945 16.828 10.273 27.27 10.273 10.445 0 19.988-3.8789 27.27-10.273-3.9297-11.277-14.664-19.375-27.27-19.375-12.609 0-23.34 8.1016-27.27 19.375zm27.27-24.059c7.3203 0 13.266-5.9453 13.266-13.266 0-7.3203-5.9453-13.266-13.266-13.266s-13.266 5.9453-13.266 13.266c0 7.3203 5.9453 13.266 13.266 13.266z" fill-rule="evenodd"/>
<text x="0.0" y="117.5" font-size="5.0" font-weight="bold" font-family="Arbeit Regular, Helvetica, Arial-Unicode, Arial, Sans-serif" fill="#000000">Created by erifqizeicon</text><text x="0.0" y="122.5" font-size="5.0" font-weight="bold" font-family="Arbeit Regular, Helvetica, Arial-Unicode, Arial, Sans-serif" fill="#000000">from Noun Project</text></svg>